<svg id="Capa_1" enable-background="new 0 0 512.093 512.093" height="512" viewBox="0 0 512.093 512.093" width="512" xmlns="http://www.w3.org/2000/svg"><g><g><path d="m136.105 256.046c-5.538 0-10.854-3.075-13.476-8.379l-39.756-80.742c-3.648-7.428-.6-16.422 6.84-20.082 7.413-3.633 16.408-.603 20.082 6.84l39.756 80.742c3.648 7.428.603 16.422-6.84 20.082-2.124 1.041-4.38 1.539-6.606 1.539z" fill="#4b2746"/></g><g><path d="m271.091 91.046v90c0 8.399-6.599 15-15 15s-15-6.601-15-15v-90c0-8.401 6.599-15 15-15s15 6.599 15 15z" fill="#4b2746"/></g><path d="m271.091 91.046v90c0 8.399-6.599 15-15 15v-120c8.401 0 15 6.599 15 15z" fill="#351b33"/><g><path d="m369.382 254.507c-7.443-3.66-10.488-12.654-6.843-20.082l39.756-80.742c3.693-7.413 12.702-10.446 20.086-6.84 7.44 3.66 10.487 12.654 6.84 20.082l-39.757 80.742c-3.663 7.412-12.621 10.497-20.082 6.84z" fill="#351b33"/></g><g><path d="m226.091 376.046h-120c-8.293 0-15-6.708-15-15v-30c0-24.813 20.186-45 45-45h60c24.812 0 45 20.187 45 45v30c0 8.292-6.709 15-15 15z" fill="#4b2746"/></g><g><path d="m166.091 286.046c-24.814 0-45-20.187-45-45s20.186-45 45-45c24.812 0 45 20.187 45 45s-20.188 45-45 45z" fill="#fdc"/></g><g><path d="m406.091 376.046h-120c-8.293 0-15-6.708-15-15v-30c0-24.813 20.186-45 45-45h60c24.812 0 45 20.187 45 45v30c0 8.292-6.709 15-15 15z" fill="#e64d2e"/></g><g><path d="m346.091 286.046c-24.814 0-45-20.187-45-45s20.186-45 45-45c24.812 0 45 20.187 45 45s-20.188 45-45 45z" fill="#ffbfab"/></g><g><path d="m463.971 200.264-108.668-52.998c-7.479-3.681-10.47-12.738-6.84-20.082l26.514-53.832c3.69-7.428 12.699-10.461 20.082-6.843l108.652 52.998c7.443 3.663 10.488 12.657 6.84 20.085l-26.499 53.832c-3.627 7.38-12.597 10.509-20.081 6.84z" fill="#d0e4e7"/></g><g><path d="m256.091 316.046c-24.9 0-45 20.099-45 45 0 24.899 20.099 45 45 45s45-20.101 45-45c0-24.9-20.099-45-45-45z" fill="#fdc"/></g><g><path d="m136.091 496.046h-121c-8.293 0-15-6.708-15-15v-30c0-24.813 21.186-45 46-45h60c24.812 0 45 20.187 45 45v30c0 8.292-6.709 15-15 15z" fill="#fabe2c"/></g><g><path d="m436.091 406.046c-24.814 0-45-20.187-45-45s20.186-45 45-45c24.812 0 46 20.187 46 45s-21.188 45-46 45z" fill="#b35744"/></g><g><path d="m76.091 406.046c-24.814 0-45-20.187-45-45s20.186-45 45-45c24.812 0 45 20.187 45 45s-20.188 45-45 45z" fill="#c86e59"/></g><g><g><path d="m286.091 406.046h-60c-24.901 0-45 20.099-45 45v30c0 8.399 6.599 15 15 15h120c8.401 0 15-6.601 15-15v-30c0-24.9-20.099-45-45-45z" fill="#66995c"/></g></g><g><path d="m497.091 496.046h-121c-8.293 0-15-6.708-15-15v-30c0-24.813 20.186-45 45-45h60c24.812 0 46 20.187 46 45v30c0 8.292-6.709 15-15 15z" fill="#d0e4e7"/></g><path d="m256.091 406.046v-90c24.901 0 45 20.099 45 45 0 24.899-20.099 45-45 45z" fill="#ffbfab"/><path d="m331.091 451.046v30c0 8.399-6.599 15-15 15h-60v-90h30c24.901 0 45 20.1 45 45z" fill="#4a8040"/><g><path d="m316.091 16.046h-120c-8.401 0-15 6.599-15 15v60c0 8.399 6.599 15 15 15h120c8.401 0 15-6.601 15-15v-60c0-8.401-6.599-15-15-15z" fill="#edf5ff"/></g><path d="m331.091 31.046v60c0 8.399-6.599 15-15 15h-60v-90h60c8.401 0 15 6.599 15 15z" fill="#d0e4e7"/><g><path d="m28.038 193.424-26.499-53.832c-3.645-7.428-.6-16.422 6.843-20.085l108.649-52.998c7.413-3.648 16.407-.585 20.085 6.843l26.515 53.832c1.757 3.558 2.021 7.689.731 11.454-1.275 3.765-3.999 6.87-7.575 8.628l-108.664 52.998c-7.491 3.672-16.455.537-20.085-6.84z" fill="#edf5ff"/></g></g></svg>